<svg xmlns="http://www.w3.org/2000/svg" width="512" height="512" viewBox="0 0 512 512" fill="none"><metadata><rdf:RDF xmlns:rdf="http://www.w3.org/1999/02/22-rdf-syntax-ns#" xmlns:dc="http://purl.org/dc/elements/1.1/"><rdf:Description><dc:creator>RealFaviconGenerator</dc:creator><dc:source>https://realfavicongenerator.net</dc:source></rdf:Description></rdf:RDF></metadata><circle cx="256" cy="256" r="256" fill="black" fill-opacity="0.9"></circle><path d="M231.024 201.214V216.989H188.7V343H165.422V216.989H123.098V201.214H231.024ZM416.56 254.35C416.56 263.412 414.327 271.686 409.862 279.172C405.528 286.527 399.618 292.437 392.132 296.902C384.646 301.367 376.372 303.6 367.31 303.6H288.116V284.097H367.31C372.826 284.097 377.817 282.784 382.282 280.157C386.747 277.399 390.293 273.787 392.92 269.322C395.547 264.725 396.86 259.735 396.86 254.35C396.86 248.834 395.547 243.843 392.92 239.378C390.293 234.913 386.747 231.367 382.282 228.74C377.817 226.113 372.826 224.8 367.31 224.8H277.084V343H257.384V205.1H367.31C376.372 205.1 384.646 207.333 392.132 211.798C399.618 216.132 405.528 222.042 409.862 229.528C414.327 237.014 416.56 245.288 416.56 254.35Z" fill="white"></path></svg>